<svg id="Capa_1" data-name="Capa 1" xmlns="http://www.w3.org/2000/svg" viewBox="0 0 449.25 380.62"><path d="M6974.5,7078c1.3-5.35,2.19-10.85,4-16,11-32.16,39.74-52.94,74.45-53.06,74.43-.24,148.86-.11,223.28,0a77.51,77.51,0,0,1,30.75,6.08c7.48,3.21,8.91,9.78,3.21,15.65-3.76,3.89-7.65,7.65-11.48,11.48a10.22,10.22,0,0,1-10.34,2.94,64,64,0,0,0-13.89-1.4c-73.12-.08-146.23,0-219.34-.11-18.92,0-32.81,7.89-41.71,24.55-3.46,6.49-4.33,13.62-4.34,20.81q-.07,110.11,0,220.24c0,22.12,12.15,38.54,32.39,44.05a49.1,49.1,0,0,0,12.58,1.4q110.55.12,221.09.08c18.8,0,32.79-8.18,40.77-25,2.89-6.09,4-13.48,4.15-20.32.51-21,.27-42.11.12-63.17a14.72,14.72,0,0,1,4.88-11.65c4.81-4.49,9.36-9.25,14-13.91,3-3,6.42-4.43,10.67-2.63s5.14,5.22,5.12,9.29c-.11,29.83.32,59.68-.44,89.49-.92,35.77-31.27,67.91-66.82,71.86a120,120,0,0,1-13.13.77q-109.89.07-219.77.05c-30.89,0-54.08-13.51-70.15-39.6a68.6,68.6,0,0,1-9.13-26.31,27.46,27.46,0,0,0-.89-3.28Z" transform="translate(-6974.5 -7008.79)"/><path d="M7182.05,7208.67c1.67-2.12,2.54-3.5,3.67-4.64q84.49-84.54,169-169.1c6.2-6.22,13.19-10.2,21.92-7.68a31.54,31.54,0,0,1,12.16,7.22c9.21,8.55,17.91,17.64,26.77,26.57,10.93,11,10.94,23.18-.05,34.18q-62.94,63-125.92,125.94-45.29,45.3-90.58,90.57c-8.82,8.82-19.53,10.62-28.48,4.76a38.81,38.81,0,0,1-6-5.12q-56-55.95-112-111.95c-11.63-11.64-11.63-23.47,0-35.11q13-13.05,26.06-26.06c10.91-10.82,23-10.82,33.84,0q32.91,32.85,65.75,65.77C7179.32,7205.19,7180.26,7206.51,7182.05,7208.67Z" transform="translate(-6974.5 -7008.79)"/></svg>