<svg id="Capa_1" data-name="Capa 1" xmlns="http://www.w3.org/2000/svg" viewBox="0 0 441 439.84"><path d="M6979,7279.32c0-38.31.14-76.62-.05-114.93-.1-20.42,7.91-36.13,24.62-48.1q91.76-65.76,183.13-132c9.26-6.68,16.35-6.7,25.68,0q92.26,66.57,184.51,133.14c15.51,11.18,23.05,26.34,23.05,45.35q0,117.57,0,235.13c0,12.4-8.4,21.09-20.84,21.12q-70.38.12-140.78,0c-12.25,0-19.91-7.86-19.93-20.12,0-28.8.07-57.61,0-86.42-.08-21.23-13.79-37.65-33.73-40.78-24.87-3.9-46.54,14.18-46.75,39.42-.24,28.66-.06,57.32-.07,86,0,14.79-7.21,21.94-22.14,21.94q-67.32,0-134.64,0c-14.74,0-22-7.32-22-22.16Q6979,7338.11,6979,7279.32Zm143.29,102.1v-5.59c0-22.52-.52-45.06.25-67.56,1.36-40.28,33.65-72,73.92-73.57,41.14-1.58,77.19,30.86,78.89,72,1,23.36.3,46.79.37,70.18v5.29h106.69v-5q0-106.62.09-213.23c0-7.47-2.75-12.73-8.69-17q-86-62.18-171.8-124.57c-2.34-1.7-3.8-1.56-6.07.07q-86,62.07-172.22,124c-5.55,4-8.2,9-8.19,15.94q.18,107.27.07,214.54v4.59Z" transform="translate(-6978.96 -6979.24)"/></svg>