<svg id="Capa_1" data-name="Capa 1" xmlns="http://www.w3.org/2000/svg" viewBox="0 0 449.01 449"><path d="M6974.5,7410.46c3.49-11.7,7.09-23.38,10.46-35.13,10.05-35.05,19.95-70.15,30.12-105.17a21.88,21.88,0,0,1,5.22-8.85q135.14-136.74,270.42-273.32c7.26-7.34,16-11.43,25.89-13.49h9.64c13.16,1.93,22.66,9.7,31.61,18.89,17.22,17.7,34.9,35,52.3,52.49,12.39,12.49,16.48,27.15,10.91,44.14-2.34,7.14-6.95,12.75-12.18,17.93l-251.22,249.16c-7.06,7-14,14.14-21.26,20.91a22,22,0,0,1-8.49,5q-68.73,19.9-137.57,39.46c-7.79,2.22-10.73,1.12-15.85-5.86Zm130.25-101.59c8.34,4.19,16.87,8.63,25.53,12.79,5.21,2.5,7.78,6.25,7.52,12.1-.2,4.41,0,8.83,0,14.41l199.33-197.57-37.08-37Zm143.05-248.09L7050,7260.37c6.06,0,10.81.05,15.57,0a10.59,10.59,0,0,1,10.25,6.18c1.07,2.07,2.09,4.17,3.14,6.26l10.29,20.47,195.59-195.49Zm104.87,74.16c.57-.51,1.47-1.23,2.28-2q20.4-20.2,40.76-40.44c10.11-10.09,10.09-21.69-.1-31.92q-28.94-29-57.95-57.95c-10.18-10.13-22.19-10-32.37.19q-19.95,20-39.82,40.14c-.91.91-1.74,1.91-2.3,2.52Zm-319,145.75a8.47,8.47,0,0,0-.78,1.36c-4.34,15.15-8.72,30.29-12.9,45.48a5.07,5.07,0,0,0,1.39,4q22.52,22.76,45.29,45.26a5.46,5.46,0,0,0,4.44,1.18c14.5-4,28.92-8.19,43.41-12.21,2.26-.63,3-1.68,2.93-4-.13-6.72-.2-13.45,0-20.17.09-2.8-.95-4.09-3.37-5.25-9.73-4.69-19.3-9.73-29-14.41a18.31,18.31,0,0,1-9-9.07c-4.74-9.87-9.7-19.64-14.75-29.35-.65-1.25-2.4-2.7-3.67-2.74C7049.65,7280.57,7041.62,7280.69,7033.7,7280.69Zm-34.1,117.85,44.85-12.85-32-32.12C7008.35,7367.87,7004.1,7382.78,6999.6,7398.54Z" transform="translate(-6974.5 -6974.5)"/></svg>