<svg id="Capa_1" data-name="Capa 1" xmlns="http://www.w3.org/2000/svg" viewBox="0 0 371.95 449.13"><path d="M7113.1,6974.5h233.33a8.06,8.06,0,0,0,1.57.69c23.26,4.39,37,20.89,37,44.48q0,41.43,0,82.87,0,110.93,0,221.86a39.89,39.89,0,0,1-7.05,23.53c-9.37,13.34-22.49,19.45-38.61,19.55-5.05,0-10.11,0-15.55,0v4.87c0,6.58.06,13.16,0,19.73-.19,18.74-13.07,31.52-31.9,31.53q-122.77,0-245.54,0c-20.71,0-33.27-12.58-33.27-33.31q0-113.12,0-226.25,0-50.87,0-101.72c0-18.64,13.1-31.62,31.79-31.69,8.48,0,17,0,25.43,0,1.25,0,2.49-.2,4-.32,0-4.9-.08-9.42,0-13.93.34-15.64,7.53-27.5,20.86-35.2C7100.64,6978,7107.1,6976.67,7113.1,6974.5Zm182.65,252.73q0-81.36,0-162.71c0-5.8,0-5.81-5.9-5.81H7047.31c-6.13,0-6.14,0-6.14,6V7389.3c0,6.25,0,6.25,6.37,6.25H7289.2c6.54,0,6.55,0,6.55-6.48Zm28.07,112c6.9,0,13.36.57,19.67-.13,8.71-1,13.46-7.1,13.46-16q0-41.87,0-83.75,0-110.3.05-220.59c0-6.38-2.25-11.33-7.95-13.89a27.63,27.63,0,0,0-11-2.17q-108.32-.18-216.63-.09c-1.47,0-2.93,0-4.39.08-7.18.62-13.71,5.47-14.34,11.46-.56,5.31-.12,10.72-.12,16.53H7108q91.65,0,183.31,0c7.39,0,14.23,1.51,20.17,6,9,6.79,12.46,16,12.45,27.11q-.18,134.85-.07,269.7Z" transform="translate(-7013.08 -6974.5)"/><path d="M7171.54,7135.91c21.78,0,43.56-.06,65.34,0,10.67,0,17.66,9.73,13.78,19.13-2.32,5.65-6.76,8.86-12.92,8.87q-66.64.1-133.3,0a14,14,0,1,1,0-28C7126.81,7135.84,7149.18,7135.91,7171.54,7135.91Z" transform="translate(-7013.08 -6974.5)"/><path d="M7171,7220.11q-32.45,0-64.9,0c-9.33,0-15.71-5.7-15.76-14s6.3-14.1,15.59-14.1q65.11,0,130.24,0c9.23,0,15.62,5.88,15.54,14.16-.07,8.11-6.39,13.88-15.37,13.89Q7203.63,7220.15,7171,7220.11Z" transform="translate(-7013.08 -6974.5)"/><path d="M7171.43,7248.18q32.23,0,64.46,0c9.34,0,15.73,5.67,15.78,13.92s-6.32,14.13-15.57,14.14q-65.12,0-130.24,0c-9.23,0-15.62-5.88-15.56-14.16s6.4-13.89,15.79-13.9Q7138.76,7248.16,7171.43,7248.18Z" transform="translate(-7013.08 -6974.5)"/></svg>