<svg id="Capa_1" data-name="Capa 1" xmlns="http://www.w3.org/2000/svg" viewBox="0 0 449.07 449.08"><path d="M7175.38,6974.5c7.78,1.13,15.61,2,23.34,3.43a183.65,183.65,0,0,1,89.64,44c29.36,26,49.54,57.9,58.53,96.11,13.74,58.46,2.43,112.05-33.55,160.29l-5.07,6.81c1.56,1,3.27,1.71,4.49,2.93q52,51.87,103.89,103.82c5.31,5.3,8.39,11.17,6.21,18.87a17.23,17.23,0,0,1-27.38,9,52,52,0,0,1-4.5-4.16q-51.18-51.14-102.31-102.31c-1.34-1.34-2.44-2.91-3.94-4.71-2.51,1.85-4.48,3.27-6.4,4.74-36.49,27.89-77.89,41-123.55,38.86-51.54-2.39-95-23.16-130.19-61-26.19-28.2-42-61.49-48-99.46-.86-5.44-1.43-10.93-2.13-16.39v-23.69c.26-1.4.55-2.8.79-4.2,1.7-10.21,2.71-20.6,5.22-30.61,9.32-37.18,28.71-68.4,57.19-94,26.16-23.51,56.47-38.66,91.08-45,7.58-1.39,15.27-2.25,22.91-3.35Zm142.16,188.86c-.22-84.88-69.37-153.94-154.07-153.85s-153.88,69.15-154,154,69.56,154.41,154.29,154.07C7248.78,7317.2,7317.76,7248,7317.54,7163.36Z" transform="translate(-6974.5 -6974.5)"/></svg>